<svg xmlns="http://www.w3.org/2000/svg" width="1327.285" height="262.562" viewBox="0 0 1327.285 262.562">
  <defs>
    <style>
      .cls-1 {
        fill-rule: evenodd;
      }
    </style>
  </defs>
  <path id="LubriFiltres" class="cls-1" d="M117.875,318.437H237.3V283.443H152.869V59.241H117.875v259.2Zm140.772-49.512q0,23.586,14.5,38.232t37.939,14.649q22.995,0,37.793-14.649t14.8-37.353V197.587H338.481V265.7q0,14.65-7.178,23.072T311.82,297.2q-27.685,0-27.685-31.5V197.587H258.647v71.338Zm139.746,49.512h25.2V292.948A55.934,55.934,0,0,0,444.1,314.042a52.993,52.993,0,0,0,27.539,7.764q22.556,0,39.477-19.263A66.105,66.105,0,0,0,528.031,257.5q0-25.779-17.212-44.531t-40.649-18.75q-30.323,0-46.582,27.246V128.3h-25.2V318.437Zm91.04-32.52q-11.646,11.865-27.759,11.865-17.434,0-29.37-11.645A38.433,38.433,0,0,1,420.365,257.5q0-16.26,11.939-28.2t28.2-11.938a39.239,39.239,0,0,1,28.711,11.792A38.531,38.531,0,0,1,501.078,257.5,39.136,39.136,0,0,1,489.433,285.917Zm74.048-88.33v120.85h25.488V251.493q0-13.475,8.716-22.485A28.851,28.851,0,0,1,619.291,220a63.738,63.738,0,0,1,9.668,1.465l7.764-25.488a46.41,46.41,0,0,0-10.547-1.758q-13.04,0-21.167,6.665T588.383,222.49v-24.9h-24.9Zm97.558-25.928a19.249,19.249,0,0,0,13.916,5.713,18.84,18.84,0,0,0,13.7-5.713,19.52,19.52,0,0,0-13.7-33.252,19.129,19.129,0,0,0-13.916,5.787A19.023,19.023,0,0,0,661.039,171.659Zm1.318,146.778h25.2V197.587h-25.2v120.85Zm70.5,0h35.4V194.332H876.493V159.338H767.851v-64.7H876.493v-35.4H732.857v259.2ZM909.306,171.659a19.248,19.248,0,0,0,13.916,5.713,18.841,18.841,0,0,0,13.7-5.713,19.52,19.52,0,0,0-13.7-33.252,19.128,19.128,0,0,0-13.916,5.787A19.02,19.02,0,0,0,909.306,171.659Zm1.318,146.778h25.195V197.587H910.624v120.85Zm66.8,0h25.489V128.3H977.421V318.437Zm70.459-121.143h-20.07v23.584h20.07v97.559h25.49V220.878h25.19V197.587h-25.19V162.431h-25.49v34.863Zm76.61,0.293v120.85h25.49V251.493q0-13.475,8.72-22.485A28.83,28.83,0,0,1,1180.3,220a63.7,63.7,0,0,1,9.67,1.465l7.76-25.488a46.347,46.347,0,0,0-10.54-1.758q-13.05,0-21.17,6.665t-16.63,21.607v-24.9h-24.9Zm198.78,15.747q-18.6-19.116-44.68-19.116-26.5,0-44.89,18.823T1215.31,257.5q0,27.394,18.17,45.85,18.15,18.458,45.11,18.457,35.16,0,56.11-27.1l-18.61-14.062q-14.64,18.018-36.33,18.017a43.671,43.671,0,0,1-26-8.569q-11.94-8.569-15.3-27.173h103.12Q1341.88,232.453,1323.27,213.334Zm-44.68,4.322q24.03,0,36.33,24.9h-73.83q11.28-24.9,37.5-24.9h0Zm126.86-23.438q-17.145,0-28.49,10.03a32.1,32.1,0,0,0-11.36,25.106,28.243,28.243,0,0,0,7.99,20.423q7.98,8.274,28.78,16.347t20.8,18.182q0,5.714-5.93,10.034a22.865,22.865,0,0,1-13.84,4.321q-11.43,0-21.98-10.254l-20.06,9.668q16.4,23.732,42.04,23.731a42.069,42.069,0,0,0,29.29-11.341q12.45-11.34,12.46-26.56a31.366,31.366,0,0,0-8.65-22.24q-8.64-9.219-28.34-16.946t-19.7-15.931q0-11.426,15.52-11.425a25.254,25.254,0,0,1,11.43,2.417,90.384,90.384,0,0,1,11.43,7.1l16.99-14.941q-21.24-17.723-38.38-17.725h0Z" transform="translate(-117.875 -59.25)"/>
</svg>
